<svg width="21" height="28" viewBox="0 0 21 28" fill="none" xmlns="http://www.w3.org/2000/svg">
<path d="M16.5251 10.0128H15.6121V5.46154C15.6121 4.01305 15.035 2.62388 14.0076 1.59965C12.9803 0.57541 11.5869 0 10.134 0C8.68113 0 7.28775 0.57541 6.26041 1.59965C5.23307 2.62388 4.65591 4.01305 4.65591 5.46154V10.0128H3.74289C2.77463 10.0139 1.84632 10.3978 1.16166 11.0804C0.476988 11.763 0.0918776 12.6885 0.0908203 13.6538V23.6667C0.0918776 24.632 0.476988 25.5575 1.16166 26.2401C1.84632 26.9227 2.77463 27.3066 3.74289 27.3077H16.5251C17.4934 27.3066 18.4217 26.9227 19.1064 26.2401C19.791 25.5575 20.1762 24.632 20.1772 23.6667V13.6538C20.1762 12.6885 19.791 11.763 19.1064 11.0804C18.4217 10.3978 17.4934 10.0139 16.5251 10.0128ZM13.7861 10.0128H6.48195V5.46154C6.48195 4.49588 6.86672 3.56977 7.55161 2.88694C8.23651 2.20412 9.16543 1.82051 10.134 1.82051C11.1026 1.82051 12.0315 2.20412 12.7164 2.88694C13.4013 3.56977 13.7861 4.49588 13.7861 5.46154V10.0128Z" fill="#6C5DD3"/>
</svg>
