<svg width="108" height="108" viewBox="0 0 108 108" fill="none" xmlns="http://www.w3.org/2000/svg">
<path fill-rule="evenodd" clip-rule="evenodd" d="M61.8193 37.2815C66.4849 28.8142 68.8177 19.7422 68.8177 10.0654C68.8177 6.59226 68.5543 3.23711 68.0277 3.39746e-08L108 7.17068e-09V42.4655H104.501C89.6401 42.4654 77.3713 45.0574 67.6945 50.2414C57.8449 55.4254 50.6737 62.251 46.1809 70.7182C41.5153 79.1854 39.1825 88.2574 39.1825 97.9342C39.1825 101.408 39.4458 104.763 39.9725 108H0V65.5342H3.49927C18.3601 65.5342 30.6289 62.9423 40.3057 57.7583C50.1553 52.5743 57.3265 45.7487 61.8193 37.2815ZM0 36.2446H1.94407C11.9665 36.2446 19.3969 33.9982 24.2353 29.5055C29.0737 24.8398 31.4929 18.3598 31.4929 10.0654C31.4929 6.31028 31.0458 2.95513 30.1516 0L0 7.17068e-09V36.2446ZM108 71.7551V108H77.8486C76.9544 105.045 76.5073 101.69 76.5073 97.9342C76.5073 89.6398 78.9265 83.1598 83.7649 78.4942C88.6033 74.0014 96.0337 71.7551 106.056 71.7551H108Z" fill="#6C5DD3"/>
</svg>
