<svg width="21" height="22" viewBox="0 0 21 22" fill="none" xmlns="http://www.w3.org/2000/svg">
<path fill-rule="evenodd" clip-rule="evenodd" d="M8.7338 19.3389C8.96082 19.1509 9.29731 19.1824 9.48538 19.4095C9.72196 19.695 9.99738 19.915 10.2926 20.0627C10.5874 20.21 10.8986 20.2838 11.2095 20.2838C11.5204 20.2838 11.8315 20.21 12.1263 20.0627C12.4215 19.915 12.697 19.695 12.9335 19.4095C13.1216 19.1824 13.4581 19.1509 13.6851 19.3389C13.9121 19.527 13.9437 19.8635 13.7557 20.0905C13.4315 20.4819 13.0411 20.7988 12.6037 21.0175C12.1658 21.2365 11.6916 21.3513 11.2095 21.3513C10.7273 21.3513 10.2532 21.2365 9.81522 21.0175C9.37779 20.7988 8.98747 20.4819 8.66327 20.0905C8.4752 19.8635 8.50678 19.527 8.7338 19.3389Z" fill="#6C5DD3"/>
<path fill-rule="evenodd" clip-rule="evenodd" d="M11.2094 1.06757C11.5042 1.06757 11.7432 1.30655 11.7432 1.60135V2.66892C11.7432 2.96372 11.5042 3.2027 11.2094 3.2027C10.9146 3.2027 10.6757 2.96372 10.6757 2.66892V1.60135C10.6757 1.30655 10.9146 1.06757 11.2094 1.06757Z" fill="#6C5DD3"/>
<path fill-rule="evenodd" clip-rule="evenodd" d="M4.27027 9.07432C4.27027 5.24191 7.37705 2.13513 11.2095 2.13513C15.0419 2.13513 18.1486 5.24191 18.1486 9.07432V13.2186C18.1486 13.7479 18.4477 14.2318 18.9211 14.4685L19.2593 14.6376C19.8872 14.9515 20.2838 15.5933 20.2838 16.2953C20.2838 17.3189 19.454 18.1486 18.4304 18.1486H3.9885C2.96491 18.1486 2.13513 17.3189 2.13513 16.2953C2.13513 15.5933 2.53176 14.9515 3.15965 14.6376L3.49777 14.4685C3.97121 14.2318 4.27027 13.7479 4.27027 13.2186V9.07432ZM11.2095 3.2027C7.96665 3.2027 5.33783 5.83151 5.33783 9.07432V13.2186C5.33783 14.1523 4.81031 15.0058 3.9752 15.4234L3.63708 15.5924C3.37086 15.7255 3.2027 15.9976 3.2027 16.2953C3.2027 16.7293 3.55451 17.0811 3.9885 17.0811H18.4304C18.8644 17.0811 19.2162 16.7293 19.2162 16.2953C19.2162 15.9976 19.048 15.7255 18.7818 15.5924L18.4437 15.4234C17.6086 15.0058 17.0811 14.1523 17.0811 13.2186V9.07432C17.0811 5.83151 14.4523 3.2027 11.2095 3.2027Z" fill="#6C5DD3"/>
<circle cx="4.27027" cy="4.27027" r="4.27027" fill="#A53B3B"/>
</svg>
