<svg width="32" height="32" viewBox="0 0 32 32" fill="none" xmlns="http://www.w3.org/2000/svg">
<rect width="32" height="32" rx="5" fill="#6C5DD3"/>
<path d="M15.606 21C19.268 21 22.471 22.575 24.213 24.925L22.371 25.796C20.953 24.116 18.453 23 15.606 23C12.759 23 10.259 24.116 8.841 25.796L7 24.924C8.742 22.574 11.944 21 15.606 21ZM15.606 6C16.9321 6 18.2039 6.52678 19.1415 7.46447C20.0792 8.40215 20.606 9.67392 20.606 11V14C20.606 15.3261 20.0792 16.5979 19.1415 17.5355C18.2039 18.4732 16.9321 19 15.606 19C14.2799 19 13.0081 18.4732 12.0705 17.5355C11.1328 16.5979 10.606 15.3261 10.606 14V11C10.606 9.67392 11.1328 8.40215 12.0705 7.46447C13.0081 6.52678 14.2799 6 15.606 6Z" fill="white"/>
</svg>
