<svg width="96" height="38" viewBox="0 0 96 38" fill="none" xmlns="http://www.w3.org/2000/svg">
<path d="M37.225 10.55V28H33.725V10.55H37.225ZM53.408 15.95C53.408 16.8833 53.183 17.7583 52.733 18.575C52.2997 19.3917 51.608 20.05 50.658 20.55C49.7247 21.05 48.5413 21.3 47.108 21.3H44.183V28H40.683V10.55H47.108C48.458 10.55 49.608 10.7833 50.558 11.25C51.508 11.7167 52.2163 12.3583 52.683 13.175C53.1663 13.9917 53.408 14.9167 53.408 15.95ZM46.958 18.475C47.9247 18.475 48.6413 18.2583 49.108 17.825C49.5747 17.375 49.808 16.75 49.808 15.95C49.808 14.25 48.858 13.4 46.958 13.4H44.183V18.475H46.958ZM68.618 15.95C68.618 16.8833 68.393 17.7583 67.943 18.575C67.5096 19.3917 66.818 20.05 65.868 20.55C64.9346 21.05 63.7513 21.3 62.318 21.3H59.393V28H55.893V10.55H62.318C63.668 10.55 64.818 10.7833 65.768 11.25C66.718 11.7167 67.4263 12.3583 67.893 13.175C68.3763 13.9917 68.618 14.9167 68.618 15.95ZM62.168 18.475C63.1346 18.475 63.8513 18.2583 64.318 17.825C64.7846 17.375 65.018 16.75 65.018 15.95C65.018 14.25 64.068 13.4 62.168 13.4H59.393V18.475H62.168ZM74.6029 13.375V17.75H80.4779V20.525H74.6029V25.15H81.2279V28H71.1029V10.525H81.2279V13.375H74.6029Z" fill="#2C2745"/>
<path fill-rule="evenodd" clip-rule="evenodd" d="M13.7376 15.2848C14.7744 13.4032 15.2928 11.3872 15.2928 9.23677C15.2928 8.46495 15.2343 7.71936 15.1173 7L24 7V16.4368H23.2224C19.92 16.4368 17.1936 17.0128 15.0432 18.1648C12.8544 19.3168 11.2608 20.8336 10.2624 22.7152C9.22562 24.5968 8.70722 26.6128 8.70722 28.7632C8.70722 29.535 8.76574 30.2806 8.88278 31H0V21.5632H0.777617C4.08002 21.5632 6.80642 20.9872 8.95682 19.8352C11.1456 18.6832 12.7392 17.1664 13.7376 15.2848ZM0 15.0544H0.432017C2.65922 15.0544 4.31042 14.5552 5.38562 13.5568C6.46082 12.52 6.99842 11.08 6.99842 9.23677C6.99842 8.40228 6.89907 7.65669 6.70036 7L0 7V15.0544ZM24 22.9456V31H17.2997C17.101 30.3433 17.0016 29.5977 17.0016 28.7632C17.0016 26.92 17.5392 25.48 18.6144 24.4432C19.6896 23.4448 21.3408 22.9456 23.568 22.9456H24Z" fill="#6C5DD3"/>
<path fill-rule="evenodd" clip-rule="evenodd" d="M13.7376 15.2848C14.7744 13.4032 15.2928 11.3872 15.2928 9.23677C15.2928 8.46495 15.2343 7.71936 15.1173 7L24 7V16.4368H23.2224C19.92 16.4368 17.1936 17.0128 15.0432 18.1648C12.8544 19.3168 11.2608 20.8336 10.2624 22.7152C9.22562 24.5968 8.70722 26.6128 8.70722 28.7632C8.70722 29.535 8.76574 30.2806 8.88278 31H0V21.5632H0.777617C4.08002 21.5632 6.80642 20.9872 8.95682 19.8352C11.1456 18.6832 12.7392 17.1664 13.7376 15.2848ZM0 15.0544H0.432017C2.65922 15.0544 4.31042 14.5552 5.38562 13.5568C6.46082 12.52 6.99842 11.08 6.99842 9.23677C6.99842 8.40228 6.89907 7.65669 6.70036 7L0 7V15.0544ZM24 22.9456V31H17.2997C17.101 30.3433 17.0016 29.5977 17.0016 28.7632C17.0016 26.92 17.5392 25.48 18.6144 24.4432C19.6896 23.4448 21.3408 22.9456 23.568 22.9456H24Z" fill="#6C5DD3"/>
</svg>
