<svg width="27" height="21" viewBox="0 0 27 21" fill="none" xmlns="http://www.w3.org/2000/svg">
<path d="M22.9259 0H3.34168C2.47628 0.000947521 1.6466 0.35324 1.03467 0.979576C0.422749 1.60591 0.0785624 2.45514 0.0776367 3.34091V17.6591C0.0785624 18.5449 0.422749 19.3941 1.03467 20.0204C1.6466 20.6468 2.47628 20.9991 3.34168 21H22.9259C23.7913 20.9991 24.621 20.6468 25.2329 20.0204C25.8448 19.3941 26.189 18.5449 26.1899 17.6591V3.34091C26.189 2.45514 25.8448 1.60591 25.2329 0.979576C24.621 0.35324 23.7913 0.000947521 22.9259 0ZM22.0994 5.52622L13.7062 12.208C13.5425 12.3383 13.3411 12.409 13.1338 12.409C12.9265 12.409 12.7251 12.3383 12.5614 12.208L4.16818 5.52622C4.06956 5.45 3.98673 5.35447 3.9245 5.2452C3.86227 5.13593 3.82187 5.01509 3.80566 4.8897C3.78945 4.76431 3.79775 4.63687 3.83008 4.51479C3.8624 4.39271 3.91811 4.27842 3.99396 4.17857C4.06981 4.07872 4.16429 3.99529 4.27191 3.93314C4.37954 3.87098 4.49816 3.83134 4.62088 3.81652C4.7436 3.80169 4.86797 3.81198 4.98678 3.84678C5.10558 3.88158 5.21644 3.9402 5.31292 4.01923L13.1338 10.2453L20.9547 4.01923C21.1502 3.86807 21.3961 3.80177 21.639 3.83468C21.882 3.86758 22.1025 3.99704 22.2529 4.19506C22.4033 4.39308 22.4716 4.64375 22.4428 4.89286C22.4141 5.14196 22.2907 5.36949 22.0994 5.52622Z" fill="#6C5DD3"/>
</svg>
